<svg xmlns="http://www.w3.org/2000/svg" xmlns:xlink="http://www.w3.org/1999/xlink" width="301" height="67" viewBox="0 0 301 67">
  <defs>
    <clipPath id="clip-Artboard_1">
      <rect width="301" height="67"/>
    </clipPath>
  </defs>
  <g id="Artboard_1" data-name="Artboard – 1" clip-path="url(#clip-Artboard_1)">
    <g id="logo_web" transform="translate(-44.025 -31.9)">
      <g id="Mapa_příležitostí" transform="translate(169.79 33.9)">
        <g id="Group_3" data-name="Group 3" transform="translate(2.179)">
          <path id="Path_1" data-name="Path 1" d="M154.226,33.9l-4.2,20.7h-3.58L149.09,41.06l-8.872,11.206h-1.712l-4.669-11.518-2.8,13.852H127.3l4.2-20.7h3.113l5.448,13.852L150.8,33.9h3.424Z" transform="translate(-127.3 -33.9)" fill="#fff"/>
          <path id="Path_2" data-name="Path 2" d="M163.822,37.1l-3.113,15.72h-3.58l.311-1.556a7.456,7.456,0,0,1-5.136,1.868,6.774,6.774,0,0,1-3.58-.778,7.205,7.205,0,0,1-2.49-2.335,7,7,0,0,1-.934-3.735,8.785,8.785,0,0,1,1.245-4.669,8.254,8.254,0,0,1,3.269-3.269,8.927,8.927,0,0,1,4.514-1.245c2.49,0,4.358.778,5.448,2.49l.467-2.335h3.735Zm-7.782,11.985a5.828,5.828,0,0,0,1.868-2.023,6.58,6.58,0,0,0,.778-3.113,3.875,3.875,0,0,0-1.09-2.957,4.687,4.687,0,0,0-3.113-1.09,4.622,4.622,0,0,0-2.8.778,5.828,5.828,0,0,0-1.868,2.023,6.58,6.58,0,0,0-.778,3.113,3.875,3.875,0,0,0,1.09,2.957,4.687,4.687,0,0,0,3.113,1.09A4.622,4.622,0,0,0,156.039,49.085Z" transform="translate(-117.284 -32.119)" fill="#fff"/>
          <path id="Path_3" data-name="Path 3" d="M173.743,37.778a7.205,7.205,0,0,1,2.49,2.335,7.394,7.394,0,0,1,.934,3.735,10.483,10.483,0,0,1-1.245,4.669,8.254,8.254,0,0,1-3.269,3.269,8.928,8.928,0,0,1-4.514,1.245,6.083,6.083,0,0,1-3.269-.623,5.176,5.176,0,0,1-2.179-1.868l-1.556,8.094H157.4l4.358-21.479h3.58l-.311,1.712A7.456,7.456,0,0,1,170.163,37a6.774,6.774,0,0,1,3.58.778ZM170.785,49.14a5.828,5.828,0,0,0,1.868-2.023A6.581,6.581,0,0,0,173.431,44a3.875,3.875,0,0,0-1.09-2.957,4.687,4.687,0,0,0-3.113-1.09,4.622,4.622,0,0,0-2.8.778,5.828,5.828,0,0,0-1.868,2.023,6.581,6.581,0,0,0-.778,3.113,3.875,3.875,0,0,0,1.09,2.957,4.687,4.687,0,0,0,3.113,1.09A4.622,4.622,0,0,0,170.785,49.14Z" transform="translate(-110.551 -32.175)" fill="#fff"/>
          <path id="Path_4" data-name="Path 4" d="M189.922,37.1l-3.113,15.72h-3.58l.311-1.556a7.456,7.456,0,0,1-5.136,1.868,6.774,6.774,0,0,1-3.58-.778,7.205,7.205,0,0,1-2.49-2.335,7,7,0,0,1-.934-3.735,8.784,8.784,0,0,1,1.245-4.669,8.254,8.254,0,0,1,3.269-3.269,8.927,8.927,0,0,1,4.514-1.245c2.49,0,4.358.778,5.448,2.49l.467-2.335h3.735Zm-7.782,11.985a5.828,5.828,0,0,0,1.868-2.023,6.581,6.581,0,0,0,.778-3.113,3.875,3.875,0,0,0-1.09-2.957,4.687,4.687,0,0,0-3.113-1.09,4.622,4.622,0,0,0-2.8.778,5.828,5.828,0,0,0-1.868,2.023,6.58,6.58,0,0,0-.778,3.113,3.875,3.875,0,0,0,1.09,2.957,4.687,4.687,0,0,0,3.113,1.09A4.622,4.622,0,0,0,182.139,49.085Z" transform="translate(-102.761 -32.119)" fill="#fff"/>
        </g>

      </g>
      <rect id="Rectangle_6" data-name="Rectangle 6" width="92.453" height="56.188" transform="translate(47.142 35.145)" fill="none"/>
      <path id="Path_28421" d="M125.12,84.263l-21.79-21.79a1.791,1.791,0,0,1,0-2.646h0L115.937,47.22a1.791,1.791,0,0,1,2.646,0h0l20.389,20.389a1.791,1.791,0,0,1,0,2.646L125.12,84.108Zm-41.4-22.1L62.862,83.018a1.791,1.791,0,0,1-2.646,0h0L47.609,70.411a1.791,1.791,0,0,1,0-2.646h0L68.465,46.909a1.791,1.791,0,0,1,2.646,0h0L83.718,59.516a1.791,1.791,0,0,1,0,2.646h0" transform="translate(0 6.914)" fill="#12b9de" fill-rule="evenodd"/>
      <path id="Path_28422" d="M122.858,50.462,90.484,82.836a1.973,1.973,0,0,1-2.8,0h0L55.309,50.462a1.973,1.973,0,0,1,0-2.8L67.76,35.209a1.973,1.973,0,0,1,2.8,0L87.838,52.485a1.973,1.973,0,0,0,2.8,0h0l17.277-17.277a1.973,1.973,0,0,1,2.8,0h0L123.17,47.66a1.973,1.973,0,0,1,0,2.8" transform="translate(4.285 0.403)" fill="#fff" fill-rule="evenodd"/>
    </g>
  </g>
</svg>
