<svg xmlns="http://www.w3.org/2000/svg" xmlns:xlink="http://www.w3.org/1999/xlink" width="301" height="67" viewBox="0 0 301 67">
  <defs>
    <clipPath id="clip-Artboard_1">
      <rect width="301" height="67"/>
    </clipPath>
  </defs>
  <g id="Artboard_1" data-name="Artboard – 1" clip-path="url(#clip-Artboard_1)">
    <g id="logo_web" transform="translate(-44.025 -31.9)">
      <g id="Mapa_příležitostí" transform="translate(34.025 33.9)">
        <g id="Group_3" data-name="Group 3" transform="translate(2.179)">
          <path id="Path_1" data-name="Path 1" d="M154.226,33.9l-4.2,20.7h-3.58L149.09,41.06l-8.872,11.206h-1.712l-4.669-11.518-2.8,13.852H127.3l4.2-20.7h3.113l5.448,13.852L150.8,33.9h3.424Z" transform="translate(-127.3 -33.9)" fill="#fff"/>
          <path id="Path_2" data-name="Path 2" d="M163.822,37.1l-3.113,15.72h-3.58l.311-1.556a7.456,7.456,0,0,1-5.136,1.868,6.774,6.774,0,0,1-3.58-.778,7.205,7.205,0,0,1-2.49-2.335,7,7,0,0,1-.934-3.735,8.785,8.785,0,0,1,1.245-4.669,8.254,8.254,0,0,1,3.269-3.269,8.927,8.927,0,0,1,4.514-1.245c2.49,0,4.358.778,5.448,2.49l.467-2.335h3.735Zm-7.782,11.985a5.828,5.828,0,0,0,1.868-2.023,6.58,6.58,0,0,0,.778-3.113,3.875,3.875,0,0,0-1.09-2.957,4.687,4.687,0,0,0-3.113-1.09,4.622,4.622,0,0,0-2.8.778,5.828,5.828,0,0,0-1.868,2.023,6.58,6.58,0,0,0-.778,3.113,3.875,3.875,0,0,0,1.09,2.957,4.687,4.687,0,0,0,3.113,1.09A4.622,4.622,0,0,0,156.039,49.085Z" transform="translate(-117.284 -32.119)" fill="#fff"/>
          <path id="Path_3" data-name="Path 3" d="M173.743,37.778a7.205,7.205,0,0,1,2.49,2.335,7.394,7.394,0,0,1,.934,3.735,10.483,10.483,0,0,1-1.245,4.669,8.254,8.254,0,0,1-3.269,3.269,8.928,8.928,0,0,1-4.514,1.245,6.083,6.083,0,0,1-3.269-.623,5.176,5.176,0,0,1-2.179-1.868l-1.556,8.094H157.4l4.358-21.479h3.58l-.311,1.712A7.456,7.456,0,0,1,170.163,37a6.774,6.774,0,0,1,3.58.778ZM170.785,49.14a5.828,5.828,0,0,0,1.868-2.023A6.581,6.581,0,0,0,173.431,44a3.875,3.875,0,0,0-1.09-2.957,4.687,4.687,0,0,0-3.113-1.09,4.622,4.622,0,0,0-2.8.778,5.828,5.828,0,0,0-1.868,2.023,6.581,6.581,0,0,0-.778,3.113,3.875,3.875,0,0,0,1.09,2.957,4.687,4.687,0,0,0,3.113,1.09A4.622,4.622,0,0,0,170.785,49.14Z" transform="translate(-110.551 -32.175)" fill="#fff"/>
          <path id="Path_4" data-name="Path 4" d="M189.922,37.1l-3.113,15.72h-3.58l.311-1.556a7.456,7.456,0,0,1-5.136,1.868,6.774,6.774,0,0,1-3.58-.778,7.205,7.205,0,0,1-2.49-2.335,7,7,0,0,1-.934-3.735,8.784,8.784,0,0,1,1.245-4.669,8.254,8.254,0,0,1,3.269-3.269,8.927,8.927,0,0,1,4.514-1.245c2.49,0,4.358.778,5.448,2.49l.467-2.335h3.735Zm-7.782,11.985a5.828,5.828,0,0,0,1.868-2.023,6.581,6.581,0,0,0,.778-3.113,3.875,3.875,0,0,0-1.09-2.957,4.687,4.687,0,0,0-3.113-1.09,4.622,4.622,0,0,0-2.8.778,5.828,5.828,0,0,0-1.868,2.023,6.58,6.58,0,0,0-.778,3.113,3.875,3.875,0,0,0,1.09,2.957,4.687,4.687,0,0,0,3.113,1.09A4.622,4.622,0,0,0,182.139,49.085Z" transform="translate(-102.761 -32.119)" fill="#fff"/>
        </g>
        <g id="Group_4" data-name="Group 4" transform="translate(0 32.685)">
          <path id="Path_5" data-name="Path 5" d="M143.332,60.634a6.385,6.385,0,0,1,2.49,2.49,7.582,7.582,0,0,1,.934,3.891,9.976,9.976,0,0,1-1.245,4.669,8.988,8.988,0,0,1-3.113,3.269A8.8,8.8,0,0,1,138.04,76.2a5.83,5.83,0,0,1-4.981-2.179L131.5,81.646h-5.6l4.358-21.79h5.292l-.311,1.556a6.216,6.216,0,0,1,4.669-1.712,4.557,4.557,0,0,1,3.269.934ZM140.064,70.6a4.384,4.384,0,0,0,1.09-3.269,2.394,2.394,0,0,0-.778-2.179,2.528,2.528,0,0,0-2.179-.778,4.185,4.185,0,0,0-2.8,1.245,4.385,4.385,0,0,0-1.09,3.269,2.394,2.394,0,0,0,.778,2.179,3.079,3.079,0,0,0,2.179.778A4.184,4.184,0,0,0,140.064,70.6Z" transform="translate(-125.9 -52.229)" fill="#fff"/>
          <path id="Path_6" data-name="Path 6" d="M153.852,62.026l-.934,4.981h-1.245a4.214,4.214,0,0,0-2.957.934,4.927,4.927,0,0,0-1.556,2.8L145.6,78.368H140l3.269-16.031h5.292l-.311,1.712a7.663,7.663,0,0,1,5.759-2.023ZM155.72,55.8l-4.514,4.514h-4.825L143.113,55.8h3.58l2.179,2.179,2.8-2.179h4.047Z" transform="translate(-118.054 -54.399)" fill="#fff"/>
          <path id="Path_7" data-name="Path 7" d="M151.469,62.181h5.6L153.8,78.213h-5.6l3.269-16.031Zm4.669-6.381H161.9l-6.07,4.514h-4.2Z" transform="translate(-113.491 -54.399)" fill="#fff"/>
          <path id="Path_8" data-name="Path 8" d="M158.558,56.1h5.6L159.8,78.046h-5.6Z" transform="translate(-110.153 -54.232)" fill="#fff"/>
          <path id="Path_9" data-name="Path 9" d="M177.832,69.394H166c.156,1.712,1.4,2.646,3.58,2.646s1.4,0,2.023-.311a10.459,10.459,0,0,0,1.868-.934l2.335,3.58A11.148,11.148,0,0,1,168.96,76.4a8.128,8.128,0,0,1-4.514-.934,5.947,5.947,0,0,1-2.957-2.49,7.619,7.619,0,0,1-1.09-3.891,9.976,9.976,0,0,1,1.245-4.669,8.651,8.651,0,0,1,3.424-3.269A10.267,10.267,0,0,1,170.05,59.9a8.4,8.4,0,0,1,4.2.934,6.279,6.279,0,0,1,2.8,2.49,7.4,7.4,0,0,1,.934,3.735,6.481,6.481,0,0,1-.311,2.646Zm-10.117-4.981a3.953,3.953,0,0,0-1.4,2.023h6.537a2.959,2.959,0,0,0-.778-2.023,3.079,3.079,0,0,0-2.179-.778,3.823,3.823,0,0,0-2.335.778Z" transform="translate(-106.703 -52.118)" fill="#fff"/>
          <path id="Path_10" data-name="Path 10" d="M188.721,65.45l-8.872,8.56h7.471l-.934,4.2H171.6l.623-3.269,8.872-8.56h-7l.778-4.2h14.319l-.623,3.269Zm.934-9.65-4.514,4.514h-4.825L177.048,55.8h3.58l2.179,2.179,2.8-2.179h4.047Z" transform="translate(-100.471 -54.399)" fill="#fff"/>
          <path id="Path_11" data-name="Path 11" d="M185.969,62.682h5.6L188.3,78.714h-5.6l3.269-16.031Zm1.245-2.49a2.51,2.51,0,0,1-.934-2.023,3.432,3.432,0,0,1,.934-2.335,3.661,3.661,0,0,1,2.646-.934,3.5,3.5,0,0,1,2.335.778,2.219,2.219,0,0,1,.934,1.868,3.432,3.432,0,0,1-.934,2.335,3.661,3.661,0,0,1-2.646.934,3.5,3.5,0,0,1-2.335-.778Z" transform="translate(-94.294 -54.9)" fill="#fff"/>
          <path id="Path_12" data-name="Path 12" d="M195.893,71.3v.467c0,.934.467,1.4,1.556,1.4a2.5,2.5,0,0,0,1.712-.467l.778,3.891a8.4,8.4,0,0,1-4.2.934,5.824,5.824,0,0,1-3.891-1.245,4.346,4.346,0,0,1-1.4-3.424V71.3L191.535,66H189.2l.934-4.2h2.335l.778-4.2h5.6l-.778,4.2h3.58l-.778,4.2h-3.58L196.2,71.3Z" transform="translate(-90.677 -53.398)" fill="#fff"/>
          <path id="Path_13" data-name="Path 13" d="M201.147,75.364a6.712,6.712,0,0,1-4.047-6.381,9.976,9.976,0,0,1,1.245-4.669,8.136,8.136,0,0,1,3.58-3.269,10.732,10.732,0,0,1,4.981-1.245,9.04,9.04,0,0,1,4.358.934,6.712,6.712,0,0,1,4.047,6.381,9.976,9.976,0,0,1-1.245,4.669,8.136,8.136,0,0,1-3.58,3.269,10.894,10.894,0,0,1-5.136,1.245,9.7,9.7,0,0,1-4.514-.934Zm7.627-4.825a4.384,4.384,0,0,0,1.09-3.269,2.394,2.394,0,0,0-.778-2.179,3.079,3.079,0,0,0-2.179-.778,4.185,4.185,0,0,0-2.8,1.245,4.385,4.385,0,0,0-1.09,3.269,2.394,2.394,0,0,0,.778,2.179,3.079,3.079,0,0,0,2.179.778A4.184,4.184,0,0,0,208.773,70.539Z" transform="translate(-86.281 -52.173)" fill="#fff"/>
          <path id="Path_14" data-name="Path 14" d="M212.057,75.776a9.088,9.088,0,0,1-2.957-1.09l2.023-3.891a10.412,10.412,0,0,0,2.646,1.09,9.774,9.774,0,0,0,2.957.467c1.712,0,2.646-.311,2.646-1.09s-.156-.623-.623-.623a16.092,16.092,0,0,1-1.868-.467c-1.245-.156-2.179-.467-2.957-.623A5.492,5.492,0,0,1,211.9,68.3a3.286,3.286,0,0,1-.934-2.49,5.01,5.01,0,0,1,2.335-4.358,10.553,10.553,0,0,1,6.226-1.556c2.646,0,2.179,0,3.269.311a7.439,7.439,0,0,1,2.8.934l-2.023,3.891a9.661,9.661,0,0,0-4.825-1.245c-1.868,0-1.556,0-1.868.311a.853.853,0,0,0-.623.934c0,.467.156.623.623.623s1.09.311,2.023.467c1.09.156,2.023.467,2.8.623a5.492,5.492,0,0,1,2.023,1.245,3.215,3.215,0,0,1,.778,2.49,5.01,5.01,0,0,1-2.335,4.358A11.658,11.658,0,0,1,216.1,76.4c-2.49,0-2.646,0-4.047-.467Z" transform="translate(-79.604 -52.118)" fill="#fff"/>
          <path id="Path_15" data-name="Path 15" d="M227.093,71.3v.467c0,.934.467,1.4,1.556,1.4a2.5,2.5,0,0,0,1.712-.467l.778,3.891a8.4,8.4,0,0,1-4.2.934,5.825,5.825,0,0,1-3.891-1.245,4.346,4.346,0,0,1-1.4-3.424V71.3L222.735,66H220.4l.934-4.2h2.335l.778-4.2h5.6l-.778,4.2h3.58l-.778,4.2h-3.58L227.4,71.3Z" transform="translate(-73.316 -53.398)" fill="#fff"/>
          <path id="Path_16" data-name="Path 16" d="M231.569,62.181h5.6L233.9,78.213h-5.6l3.269-16.031Zm4.669-6.381H242l-6.07,4.514h-4.2Z" transform="translate(-68.92 -54.399)" fill="#fff"/>
        </g>
      </g>
      </g>
  </g>
</svg>
