<svg id="Group_1229" data-name="Group 1229" xmlns="http://www.w3.org/2000/svg" xmlns:xlink="http://www.w3.org/1999/xlink" width="941.339" height="1066.413" viewBox="0 0 941.339 1066.413">
  <defs>
    <clipPath id="clip-path">
      <rect id="Rectangle_733" data-name="Rectangle 733" width="941.339" height="1066.413" fill="none" stroke="#00d5d5" stroke-width="1"/>
    </clipPath>
  </defs>
  <g id="Group_1228" data-name="Group 1228" clip-path="url(#clip-path)">
    <path id="Path_28327" data-name="Path 28327" d="M216.707,223.94c.454,5.4-.217,10.772-2.822,14.683-2.193,3.288-6.7,5.4-10.22,3.591-2.5-1.285-3.792-4.083-4.647-6.757a44.014,44.014,0,0,1-1.751-18.763c.588-4.73,4.359-14.828,11.074-12.635,1.985.647,3.234,2.579,4.16,4.448A45.022,45.022,0,0,1,216.707,223.94Z" transform="translate(387.458 400.866)" fill="none" stroke="#00d5d5" stroke-width="1"/>
    <path id="Path_28328" data-name="Path 28328" d="M279.645,227.815c9.063,33.921,14.84,84.693-13.852,87.225-9.543.843-15.733-6.247-22.6-11.594-16.208-12.617-37.95-9.241-53.215-23.745-23.971-22.775-3.16-53.776,17.606-70.2,17.368-13.736,48.072-38.194,63.289-7.1C273.437,207.646,276.71,216.851,279.645,227.815Z" transform="translate(352.669 368.546)" fill="none" stroke="#00d5d5" stroke-width="1"/>
    <path id="Path_28329" data-name="Path 28329" d="M353.382,254.91a295.764,295.764,0,0,1-.27,44.176c-2.359,30.82,12.4,97.219-35.909,96.412-17.25-.288-26.11-14.475-37.262-25.214-28.65-27.588-69.548-17.3-99.5-42.3-20.5-17.11-24.6-47.657-13.445-71.153,10-21.069,32.03-37.33,50.4-50.482,24.861-17.8,65.788-49.85,97.884-31.909C341.569,189.131,350.949,222.689,353.382,254.91Z" transform="translate(316.616 332.798)" fill="none" stroke="#00d5d5" stroke-width="1"/>
    <path id="Path_28330" data-name="Path 28330" d="M425.953,281.651c2.475,16.3,3,28.428,1.783,38.366-3.039,24.837-13.784,35.648-10.962,75.672.6,8.327,1.3,16.069,1.843,23.2,2.985,39.3,1.329,59.378-49.93,56.541-43.965-2.466-47.725-62.877-107.709-70.687-2.2-.285-4.478-.513-6.825-.662-34.514-2.113-63.28-12.561-83.18-28.342-26.8-21.253-34.933-59.527-23.484-91.059,13.264-36.529,49.209-60.895,79.806-82.017,50.669-34.986,143.671-97.228,177.271,2.861C410.309,222.615,419.582,239.68,425.953,281.651Z" transform="translate(280.253 297.478)" fill="none" stroke="#00d5d5" stroke-width="1"/>
    <path id="Path_28331" data-name="Path 28331" d="M497.656,308.828c2.84,21.481,2.855,37.036.988,49.672-4.73,32.039-19.368,45.075-15.858,96.975.733,10.7,1.614,20.609,2.3,29.707,3.825,50.607,1.837,75.58-65.639,70.494-57.883-4.383-61.372-85.806-140.205-95.444q-4.313-.534-8.923-.783C225.023,457.093,187,444.1,160.79,423.813c-26.282-20.351-38.407-54.271-36.262-86.857,2.481-37.669,24.535-66.289,51.5-90.958,18.8-17.2,39.342-32.461,60.443-46.7,67.236-45.755,191.488-126.641,234.263,7.843C478.056,230.159,490.273,252.984,497.656,308.828Z" transform="translate(244.525 261.808)" fill="none" stroke="#00d5d5" stroke-width="1"/>
    <path id="Path_28332" data-name="Path 28332" d="M570,335.955c3.2,26.668,2.709,45.645.2,60.978-6.433,39.235-24.953,54.5-20.757,118.279.864,13.066,1.926,25.149,2.76,36.214,4.671,61.909,2.353,91.783-81.34,84.45-71.806-6.3-75.04-108.608-172.7-120.2q-5.324-.641-11.027-.911c-56.078-2.6-103.317-18.187-135.878-42.927-59.571-45.268-57.663-132.148-11.493-186.61,29.968-35.354,68.233-63.731,106.531-89.343,83.94-56.328,239.305-156.042,291.259,12.825C546.453,237.659,561.623,266.245,570,335.955Z" transform="translate(208.095 226.138)" fill="none" stroke="#00d5d5" stroke-width="1"/>
    <path id="Path_28333" data-name="Path 28333" d="M94.067,363.255c15.529-45.633,51.808-84.284,89.379-115.626a857.031,857.031,0,0,1,74.773-55.159c100.637-66.9,287.116-185.437,348.248,17.8,10.493,34.888,28.618,69.236,37.989,152.808,12.775,113.893-33.03,106.836-26.253,211.865C624.8,677.1,642.077,727.364,524.38,716.076c-88.839-8.519-88.815-140.5-218.328-145.994C221.578,566.5,106.287,532.342,88.545,435.7A141.919,141.919,0,0,1,94.067,363.255Z" transform="translate(169.535 190.452)" fill="none" stroke="#00d5d5" stroke-width="1"/>
    <path id="Path_28334" data-name="Path 28334" d="M837.507,14.12s-87.845-30.645-137.564,0C614.511,66.78,635.461,173.177,502.2,246.256S-95.47,420.085,18.266,623.362,191.49,743.956,376.339,808.438,601.072,946.966,652.657,998.552s79.316,71.883,169.624,63.6c94.4-8.656,120.323-68.829,116.172-165.728-3.632-84.7-20.736-124.736-25.176-214.759-4.534-91.966,7.3-123.5,11.324-255.863C929.313,270.841,976.792,87.2,837.507,14.12Z" transform="translate(0.984 0.984)" fill="none" stroke="#00d5d5" stroke-width="1"/>
    <path id="Path_28335" data-name="Path 28335" d="M699.253,48.315c-44.942-3.365-91.219,16.831-127.917,42.74-49.577,35-57.01,61.1-143.066,108.293C306.092,266.35-54.477,335.53,37.988,527.08,102.53,660.786,166.8,634.646,336.271,693.764s208.5,124.13,255.792,171.425c28.235,28.235,64.4,42.6,103.6,47.313,41.633,5,93.729,9.73,119.442-31.208,27.075-43.114,7.371-101.133,4.893-147.932-2.715-51.339,2.519-102.637,4.045-153.92,3.849-129.353,14.769-253.837,5.395-383.389-3.908-54-34.5-109.46-84.364-134.985A119.215,119.215,0,0,0,699.253,48.315Z" transform="translate(45.245 94.335)" fill="none" stroke="#00d5d5" stroke-width="1"/>
    <path id="Path_28336" data-name="Path 28336" d="M530.26,93.014c-63.147,20.466-119.581,59.239-177.336,90.91C241.832,244.846-6.687,278.6,56.29,462.287c21.021,61.316,78.907,102.166,233,155.921s197.752,102.1,240.756,145.1,73.993,57.435,147.7,40.639c96.9-22.09,46.9-158.315,56.159-222.809,6.706-46.71,25.22-91.545,26.6-139.077,1.677-57.939-2.659-107.074-8.448-164.746-4.861-48.387-12.383-104.43-37.918-146.813C681.153,75.756,612.158,72.824,556.085,85.821,547.343,87.848,538.741,90.267,530.26,93.014Z" transform="translate(90.93 156.199)" fill="none" stroke="#00d5d5" stroke-width="1"/>
  </g>
</svg>
