<svg xmlns="http://www.w3.org/2000/svg" xmlns:xlink="http://www.w3.org/1999/xlink" width="222" height="100" viewBox="0 0 222 100">
  <defs>
    <clipPath id="clip-Artboard_1">
      <rect width="222" height="100"/>
    </clipPath>
  </defs>
  <g id="Artboard_1" data-name="Artboard – 1" clip-path="url(#clip-Artboard_1)">
    <g id="_02" data-name="02" transform="translate(-46.42 -35.6)">
      <path id="Path_17" data-name="Path 17" d="M113.833,50.24l3.313,12.587h-1.424l-.891-3.805h-3.473l-.931,3.805H108.95l3.473-12.587h1.424Zm.652,7.584-1.4-5.655-1.45,5.655h2.834Z" transform="translate(19.677 3.847)" fill="#fff"/>
      <path id="Path_18" data-name="Path 18" d="M117.757,50.35V61.54h4.59v1.251H116.4V50.35Z" transform="translate(22.139 3.884)" fill="#fff"/>
      <rect id="Rectangle_7" data-name="Rectangle 7" width="1.357" height="12.441" transform="translate(146.177 54.234)" fill="#fff"/>
      <path id="Path_19" data-name="Path 19" d="M129.433,50.24l3.313,12.587h-1.424l-.891-3.805h-3.473l-.931,3.805H124.55l3.473-12.587h1.424Zm.665,7.584-1.4-5.655-1.45,5.655h2.834Z" transform="translate(24.833 3.847)" fill="#fff"/>
      <path id="Path_20" data-name="Path 20" d="M138.31,50.35h1.277V62.791h-1.41l-4.9-10.125V62.791H131.99V50.35h1.437l4.883,10.112Z" transform="translate(27.292 3.884)" fill="#fff"/>
      <path id="Path_21" data-name="Path 21" d="M140.624,53.763V59.6a2.132,2.132,0,0,0,2.355,2.2,3.062,3.062,0,0,0,2.342-.865l.679.891a3.769,3.769,0,0,1-3.113,1.184c-2.089,0-3.646-1.131-3.646-3.38V53.709a3.406,3.406,0,0,1,3.619-3.5,3.767,3.767,0,0,1,3.167,1.4l-.745.971a2.928,2.928,0,0,0-2.342-1.118,2.179,2.179,0,0,0-2.328,2.3" transform="translate(29.689 3.838)" fill="#fff"/>
      <path id="Path_22" data-name="Path 22" d="M147,57.043v4.5h4.284v1.251H145.64V50.35h5.176v1.264H147v4.218h2.887v1.211Z" transform="translate(31.804 3.884)" fill="#fff"/>
      <path id="Path_23" data-name="Path 23" d="M157.95,50.35a3.187,3.187,0,0,1,3.353,3.366v1.158a2.972,2.972,0,0,1-3.286,3.113h-2.049V62.8H154.61V50.363h3.353Zm1.983,3.473a2.049,2.049,0,0,0-2.036-2.209h-1.943V56.79H157.9a1.858,1.858,0,0,0,2.036-2.036Z" transform="translate(34.769 3.884)" fill="#fff"/>
      <path id="Path_24" data-name="Path 24" d="M165.421,57.206l2.488,5.575h-1.464l-2.3-5.269H162.4v5.269h-1.37V50.34h3.233a2.886,2.886,0,0,1,3.22,3.087v.958a2.579,2.579,0,0,1-2.062,2.821m-3.02-.891h1.916a1.664,1.664,0,0,0,1.8-1.8V53.453A1.759,1.759,0,0,0,164.17,51.6H162.4v4.7Z" transform="translate(36.891 3.88)" fill="#fff"/>
      <path id="Path_25" data-name="Path 25" d="M174.7,53.723v5.841a3.333,3.333,0,0,1-3.619,3.459h-.293a3.312,3.312,0,0,1-3.619-3.459V53.723a3.363,3.363,0,0,1,3.606-3.513h.306a3.373,3.373,0,0,1,3.619,3.513m-1.37.013a2.12,2.12,0,0,0-2.249-2.262h-.306a2.113,2.113,0,0,0-2.249,2.262v5.8a2.1,2.1,0,0,0,2.275,2.235h.293a2.1,2.1,0,0,0,2.249-2.235v-5.8Z" transform="translate(38.921 3.838)" fill="#fff"/>
      <path id="Path_26" data-name="Path 26" d="M117.206,73.5a4,4,0,0,1,2.7,3.805v1.237c0,2.994-2,4.511-4.843,4.511H109.09V64.68h5.535a4.5,4.5,0,0,1,4.8,4.75v.785a3.663,3.663,0,0,1-2.235,3.273M112.47,72.4h1.81a1.779,1.779,0,0,0,1.81-1.969v-.785a1.937,1.937,0,0,0-2.222-2.129h-1.41v4.9Zm4.058,4.67a2.04,2.04,0,0,0-2.129-2.076h-1.916v5.3h2a1.9,1.9,0,0,0,2.049-2.1v-1.1Z" transform="translate(19.723 8.62)" fill="#fff"/>
      <path id="Path_27" data-name="Path 27" d="M122.473,75.175v4.936h5.881v2.954H119.12V64.69h8.622v2.994h-5.269v4.6h3.752v2.887Z" transform="translate(23.038 8.624)" fill="#fff"/>
      <path id="Path_28" data-name="Path 28" d="M137.875,64.69v1.836l-6.44,13.532H137.9v3.007H127.47V81.2l6.4-13.492h-6.214V64.69Z" transform="translate(25.798 8.624)" fill="#fff"/>
      <path id="Path_29" data-name="Path 29" d="M140.393,75.175v4.936h5.894v2.954H137.04V64.69h8.622v2.994h-5.269v4.6h3.752v2.887Z" transform="translate(28.962 8.624)" fill="#fff"/>
      <path id="Path_30" data-name="Path 30" d="M149.489,64.69,153,74.5l3.539-9.806h3.752V83.065H156.94V70.278l-2.967,8.648h-2L149.05,70.3v12.76h-3.38V64.69Z" transform="translate(31.814 8.624)" fill="#fff"/>
      <rect id="Rectangle_8" data-name="Rectangle 8" width="3.38" height="18.375" transform="translate(195.114 73.314)" fill="#fff"/>
      <path id="Path_31" data-name="Path 31" d="M173.8,78.225c.027,3.02-1.81,5.109-5.136,5.109a6.151,6.151,0,0,1-5.349-2.754l1.969-2.076a3.621,3.621,0,0,0,3.14,1.889,2.071,2.071,0,0,0,2.222-2.076c0-1.543-1-1.969-2.541-3.02-2.382-1.437-4.244-2.994-4.3-5.641-.053-3.513,2.328-5.136,5.083-5.136a5.834,5.834,0,0,1,4.83,2.3l-1.81,2.1a3.336,3.336,0,0,0-2.807-1.41,1.862,1.862,0,0,0-2.1,2c0,1.4,1.025,1.969,2.887,3.193,2.834,1.623,3.885,3.459,3.925,5.535" transform="translate(37.648 8.568)" fill="#fff"/>
      <path id="Path_32" data-name="Path 32" d="M181.881,64.69h3.1V83.065H181.8l-5.788-12.374V83.065H172.94V64.69h3.207l5.735,12.534Z" transform="translate(40.828 8.624)" fill="#fff"/>
      <path id="Path_33" data-name="Path 33" d="M184.25,66.25h3.38V84.625h-3.38Zm2.994-6.267,2.1,1.264-3.326,3.726-1.623-.838,2.834-4.165Z" transform="translate(44.566 7.064)" fill="#fff"/>
      <path id="Path_34" data-name="Path 34" d="M117.206,92.181a4,4,0,0,1,2.7,3.805v1.237c0,2.994-2,4.511-4.843,4.511H109.09V83.36h5.535a4.5,4.5,0,0,1,4.8,4.75V88.9a3.663,3.663,0,0,1-2.235,3.273m-4.723-1.1h1.81a1.779,1.779,0,0,0,1.81-1.969V88.31a1.937,1.937,0,0,0-2.222-2.129h-1.41v4.9Zm4.058,4.683a2.04,2.04,0,0,0-2.129-2.076h-1.916v5.3h2a1.9,1.9,0,0,0,2.049-2.1v-1.1Z" transform="translate(19.723 14.795)" fill="#fff"/>
      <path id="Path_35" data-name="Path 35" d="M127.7,83.37h3.38V96.582c0,3.592-2.621,5.429-5.921,5.429s-6.054-1.783-6.054-5.429V83.37h3.38V96.635a2.416,2.416,0,0,0,2.674,2.435,2.338,2.338,0,0,0,2.541-2.435Z" transform="translate(23.032 14.798)" fill="#fff"/>
      <path id="Path_36" data-name="Path 36" d="M135.066,83.37c3.592,0,6.214,1.836,6.214,5.788v6.866c0,3.912-2.887,5.721-6.427,5.721H130.21V83.37h4.856Zm2.834,5.721a2.6,2.6,0,0,0-2.834-2.728h-1.543V98.791h1.331c1.676,0,3.047-.785,3.047-2.728V89.091Z" transform="translate(26.704 14.798)" fill="#fff"/>
      <path id="Path_37" data-name="Path 37" d="M152.421,88.6v8.183c0,3.433-2.408,5.3-5.814,5.3h-.4c-3.433,0-5.868-1.836-5.868-5.3V88.6c0-3.433,2.515-5.429,5.841-5.429h.439c3.326,0,5.814,2.049,5.814,5.429m-3.393.106a2.328,2.328,0,0,0-2.435-2.541h-.439a2.313,2.313,0,0,0-2.462,2.515v8.05a2.228,2.228,0,0,0,2.488,2.408h.4a2.237,2.237,0,0,0,2.435-2.408V88.705Z" transform="translate(30.052 14.732)" fill="#fff"/>
      <path id="Path_38" data-name="Path 38" d="M159.9,83.37h3.38V96.582c0,3.592-2.621,5.429-5.921,5.429s-6.054-1.783-6.054-5.429V83.37h3.38V96.635a2.416,2.416,0,0,0,2.674,2.435,2.338,2.338,0,0,0,2.541-2.435V83.37Z" transform="translate(33.675 14.798)" fill="#fff"/>
      <path id="Path_39" data-name="Path 39" d="M165.566,88.708v7.943a2.411,2.411,0,0,0,2.648,2.541,4.068,4.068,0,0,0,2.941-1l1.437,2.182a6.019,6.019,0,0,1-4.7,1.7c-3.247,0-5.695-1.756-5.695-5.242V88.482c0-3.3,2.488-5.322,5.668-5.322A6,6,0,0,1,172.645,85L171.1,87.325a4.142,4.142,0,0,0-2.994-1.211,2.346,2.346,0,0,0-2.541,2.595" transform="translate(37.278 14.729)" fill="#fff"/>
      <path id="Path_40" data-name="Path 40" d="M180.511,83.37h3.113v18.361h-3.193l-5.775-12.374v12.374H171.57V83.37h3.22L180.511,95.9Z" transform="translate(40.375 14.798)" fill="#fff"/>
      <path id="Path_41" data-name="Path 41" d="M194.648,88.6v8.183c0,3.433-2.408,5.3-5.8,5.3h-.4c-3.433,0-5.868-1.836-5.868-5.3V88.6c0-3.433,2.515-5.429,5.841-5.429h.439c3.326,0,5.8,2.049,5.8,5.429m-3.393.106a2.328,2.328,0,0,0-2.435-2.541h-.439a2.313,2.313,0,0,0-2.461,2.515v8.05a2.228,2.228,0,0,0,2.488,2.408h.4a2.237,2.237,0,0,0,2.435-2.408V88.705Z" transform="translate(44.014 14.732)" fill="#fff"/>
      <path id="Path_42" data-name="Path 42" d="M203.585,96.9c.027,3.02-1.81,5.109-5.136,5.109A6.151,6.151,0,0,1,193.1,99.26l1.969-2.076a3.636,3.636,0,0,0,3.14,1.889A2.06,2.06,0,0,0,200.418,97c0-1.543-1-1.969-2.541-3.02-2.382-1.437-4.244-2.994-4.3-5.641-.053-3.513,2.328-5.136,5.083-5.136a5.875,5.875,0,0,1,4.843,2.3l-1.81,2.1a3.336,3.336,0,0,0-2.807-1.41,1.862,1.862,0,0,0-2.1,2c0,1.4,1.025,1.969,2.887,3.193,2.834,1.623,3.885,3.459,3.925,5.535" transform="translate(47.491 14.742)" fill="#fff"/>
      <path id="Path_43" data-name="Path 43" d="M202.18,86.364V83.37h11.882v2.994h-4.244v15.368h-3.38V86.364Z" transform="translate(50.493 14.798)" fill="#fff"/>
      <path id="Path_44" data-name="Path 44" d="M115.238,63.225V57.317A18.725,18.725,0,0,0,96.531,38.61H68.137A18.733,18.733,0,0,0,49.43,57.317v55.058h.053l-.053,1.863a18.716,18.716,0,0,0,18.707,18.707H96.531a18.725,18.725,0,0,0,18.707-18.707V63.824l.04-.6h-.04ZM50.8,90.634h0V57.317A17.342,17.342,0,0,1,68.124,39.994H96.518a17.342,17.342,0,0,1,17.324,17.324v5.721c-4.311-.386-11.629.412-14.729.8V61.469a6.754,6.754,0,0,0-6.746-6.746H72.249A6.754,6.754,0,0,0,65.5,61.469V78.287a47.092,47.092,0,0,0-7.132,6.905,59.516,59.516,0,0,0-4.338,5.6,36.186,36.186,0,0,0-3.26,5.881V90.634Zm63.028-26.212h0a2.385,2.385,0,0,1-.027.319v.053c-.013.133-.027.253-.04.386a3.294,3.294,0,0,1-.04.359,3.837,3.837,0,0,1-.053.386c-.013.12-.04.239-.053.359s-.04.253-.067.373-.04.24-.067.359-.04.239-.067.359l-.08.359-.08.359a18648.843,18648.843,0,0,0-.186.718c-.027.12-.067.24-.093.359s-.067.24-.093.359-.067.239-.106.359-.067.226-.106.346l-.12.359c-.04.106-.067.226-.106.346l-.12.359c-.04.106-.08.226-.12.333s-.093.239-.133.359l-.12.319c-.053.12-.093.239-.146.373a3.25,3.25,0,0,1-.133.319c-.053.12-.106.239-.16.373-.04.106-.093.2-.133.306s-.106.253-.16.373c-.04.093-.093.2-.133.293-.053.12-.12.253-.173.373l-.12.239-.027.04c-.067.133-.12.253-.186.373-.04.093-.093.173-.133.266-.067.133-.133.253-.2.386-.04.08-.093.173-.133.253-.067.133-.133.253-.2.386l-.133.239c-.067.133-.146.253-.213.386l-.133.226c-.08.133-.146.266-.226.386l-.12.213c-.08.133-.16.266-.226.4l-.12.2-.24.4-.106.186c-.08.133-.173.266-.253.4l-.106.173c-.093.133-.173.266-.266.4l-.106.16c-.093.133-.173.266-.266.4l-.093.133c-.093.133-.186.266-.279.412l-.093.133-.279.4-.093.12-.279.4-.093.12c-.093.133-.186.253-.279.386l-.106.146c-.093.12-.173.226-.253.346l-.359.479c-.12.16-.239.306-.373.466-.213.279-.439.559-.665.838-.053.053-.093.12-.146.173l-.16.2-.386.466c-.067.067-.12.146-.186.213l-.186.226c-.106.133-.226.253-.333.386-.067.08-.133.16-.213.239l-.2.226-.319.359c-.067.08-.146.16-.213.226l-.2.213c-.106.12-.226.239-.333.359l-.24.239-.2.2-.346.346-.239.24-.213.213c-.12.12-.226.226-.346.333-.08.08-.173.16-.266.253l-.12.106s-.12.12-.186.173V65.247c2.488-.306,10.418-1.211,14.689-.8m-46.9,42.99V78.566A64.137,64.137,0,0,1,97.742,65.407V91.818c-9.886,8.648-22.193,13.265-30.829,15.62M97.742,93.628v16.459a3.155,3.155,0,0,1-.04.612,4.708,4.708,0,0,1-.106.6,5.553,5.553,0,0,1-.386,1.118,4.929,4.929,0,0,1-.386.679,5.651,5.651,0,0,1-1.038,1.144,5.27,5.27,0,0,1-1.317.812c-.16.067-.319.133-.492.186s-.346.093-.519.133a5.8,5.8,0,0,1-1.078.106H72.262a5.372,5.372,0,0,1-5.362-5.362v-1.224c8.542-2.3,20.77-6.8,30.829-15.235M66.913,76.81V61.455a5.372,5.372,0,0,1,5.362-5.362H92.393a5.372,5.372,0,0,1,5.362,5.362V64.01a65.638,65.638,0,0,0-30.829,12.8M50.8,100.493l.08-.213A36.5,36.5,0,0,1,55.2,91.565a57,57,0,0,1,4.244-5.482,50.127,50.127,0,0,1,6.081-6.054V107.8A111.938,111.938,0,0,1,50.8,110.525V100.493Zm63.054,13.744a17.342,17.342,0,0,1-17.324,17.324H68.137a17.308,17.308,0,0,1-17.324-17.31l.053-2.342a111.646,111.646,0,0,0,14.663-2.688v.865a6.755,6.755,0,0,0,6.746,6.746H92.393a7.691,7.691,0,0,0,1.357-.133c.213-.04.439-.106.652-.16s.412-.146.625-.226a7.508,7.508,0,0,0,.865-.439,8.545,8.545,0,0,0,.8-.559,6.824,6.824,0,0,0,2.422-4.431,7.5,7.5,0,0,0,.04-.772V92.457c.093-.08.213-.2.359-.333.08-.067.16-.16.253-.239.692-.639,1.4-1.331,2.116-2.049a54.282,54.282,0,0,0,4.045-4.644c.173-.213.333-.426.506-.639l.12-.16c.16-.2.319-.412.492-.639l.027-.04c.173-.226.346-.466.506-.692l.12-.173c.146-.2.293-.412.439-.625l.08-.106c.173-.24.333-.492.506-.745l.12-.173c.146-.213.279-.426.426-.652l.106-.16c.16-.266.333-.519.492-.785l.106-.173.4-.679.106-.186c.16-.279.319-.559.466-.838l.08-.16c.133-.239.266-.479.386-.732l.106-.213.439-.878.053-.106c.133-.266.253-.532.373-.8l.106-.239.4-.918v-.027c.133-.293.253-.6.373-.9l.093-.239.319-.878.027-.08c.053-.146.106-.306.16-.466v43.163Z" transform="translate(0.003 0.003)" fill="#fff"/>
      <rect id="Rectangle_9" data-name="Rectangle 9" width="215.134" height="94.348" transform="translate(49.42 38.6)" fill="none"/>
    </g>
  </g>
</svg>
