<?xml version="1.0" encoding="UTF-8"?>
<svg id="Vrstva_1" xmlns="http://www.w3.org/2000/svg" version="1.1" viewBox="0 0 1000 333">
  <!-- Generator: Adobe Illustrator 29.0.0, SVG Export Plug-In . SVG Version: 2.1.0 Build 186)  -->
  <defs>
    <style>
      .st0 {
        fill: #fff;
      }
    </style>
  </defs>
  <path class="st0" d="M417,123h15c0,7.02,3.97,11.2,10.5,11.2,5.55,0,8.7-2.59,8.7-7.11,0-3.98-2.04-6.01-7.86-8.33l-11.6-4.52c-8.68-3.24-13.1-9.24-13.1-17.6,0-11.4,8.97-19,23-19s23.7,8.04,23.7,20.5h-15c0-6-3.14-9.33-8.96-9.33-4.9,0-7.76,2.5-7.76,6.38,0,3.6,2.48,5.82,8.87,8.41l10.7,4.25c8.97,3.51,13,9.52,13,18.2,0,12.1-9.43,20-23.8,20-15.9,0-25.4-8.5-25.4-23v-.05ZM483.4,99.6l9.97,28,9.98-28h15.7l-19.3,44.5h-12.8l-19.2-44.5h15.65ZM556.5,121.9c0-6.37-3.6-11.6-10.6-11.6-6.56,0-10.6,4.89-10.6,11.6s4.06,11.8,10.6,11.8c7.02,0,10.6-5.27,10.6-11.8ZM520.8,121.9c0-13.3,8.22-23.5,21.2-23.5,6.48,0,11.6,3.04,14,7.58v-6.38h14v44.5h-14v-6.28c-2.41,4.44-7.95,7.48-14.1,7.48-13.3,0-21-10.1-21-23.5l-.1.1ZM577.9,111.4v-11.7h41.2l-21.5,32.9h19.9v11.6h-41.7l21.9-32.8h-19.8ZM660.9,99.7v6.46c1.93-4.43,6.55-7.67,12.8-7.67,7.95,0,12,3.51,14,8.23,2.4-4.81,7.67-8.23,14.2-8.23,12.8,0,15.8,8.78,15.8,18.1v27.6h-14.2v-25c0-6.19-2.31-8.79-6.65-8.79s-7.49,2.5-7.49,10.9v22.9h-14.2v-25.1c0-6.19-2.21-8.69-6.56-8.69s-7.57,2.5-7.57,10.9v22.9h-14.2v-44.5h14.2-.13ZM760.2,122c0-6.74-3.98-11.6-10.6-11.6s-10.6,4.89-10.6,11.6,3.88,11.6,10.6,11.6,10.6-4.9,10.6-11.6ZM724.8,122c0-13.6,9.43-23.6,24.8-23.6s24.7,9.98,24.7,23.6-9.43,23.7-24.7,23.7-24.8-10.1-24.8-23.7ZM814.3,122c0-6.37-3.6-11.6-10.6-11.6-6.56,0-10.6,4.89-10.6,11.6s4.06,11.8,10.6,11.8c7.02,0,10.6-5.27,10.6-11.8ZM778.6,122c0-13.3,8.23-23.5,21.2-23.5,6.48,0,11.6,3.04,14,7.58v-26.5h14.1v64.7h-14.1v-6.28c-2.41,4.44-7.94,7.48-14.1,7.48-13.3,0-21-10.1-21-23.5l-.1.02ZM859.4,107.9c-6.11,0-9.81,3.79-9.89,9.25h19.3c-.09-5.91-3.43-9.25-9.42-9.25h.01ZM882.4,125.9h-32.9c.28,5.82,4.16,9.15,10.4,9.15,4.35,0,7.11-1.4,8.32-4.16h13.9c-1.38,8.78-10.3,14.8-22.2,14.8-15.2,0-24.5-8.77-24.5-23.7s9.52-23.6,24-23.6,23.3,8.69,23.3,21.3c0,2.41-.1,3.61-.38,6.2h.06ZM904.5,99.7v9.33c1.58-6.65,6.84-10.1,12.3-10.1,1.65,0,2.58.1,3.69.37v13.1c-1.66-.18-2.49-.28-4.25-.28-6.93,0-11.7,4.16-11.7,14.9v17.2h-14.1v-44.5h14.1l-.04-.02ZM941.7,99.7v6.46c2.59-4.99,7.67-7.67,14.4-7.67,10.8,0,16.3,6.1,16.3,18.2v27.5h-14.2v-22.9c0-7.49-2.13-10.9-7.86-10.9s-8.59,3.7-8.59,10.5v23.3h-14.1v-44.5h14.1-.05ZM983.1,144.2h14.1v-44.5h-14.1v44.5ZM441.1,200.3c-6.11,0-9.81,3.79-9.89,9.25h19.3c-.1-5.92-3.43-9.25-9.43-9.25h.02ZM464.1,218.3h-32.9c.27,5.83,4.15,9.15,10.4,9.15,4.34,0,7.11-1.39,8.32-4.16h13.9c-1.39,8.78-10.4,14.8-22.2,14.8-15.2,0-24.5-8.78-24.5-23.7s9.52-23.6,24-23.6,23.3,8.69,23.3,21.3c0,2.4-.1,3.61-.37,6.19l.05.02ZM486.2,192.1v6.46c2.59-4.99,7.67-7.67,14.4-7.67,10.8,0,16.3,6.1,16.3,18.2v27.6h-14.2v-22.9c0-7.49-2.12-10.9-7.85-10.9s-8.6,3.7-8.6,10.5v23.3h-14.1v-44.6h14.1-.05ZM548.1,200.23c-6.1,0-9.8,3.79-9.89,9.25h19.3c-.1-5.92-3.43-9.25-9.43-9.25h.02ZM571.1,218.23h-32.9c.28,5.83,4.16,9.15,10.4,9.15,4.34,0,7.11-1.39,8.32-4.16h13.9c-1.39,8.78-10.4,14.8-22.2,14.8-15.2,0-24.5-8.78-24.5-23.7s9.51-23.6,24-23.6,23.3,8.69,23.3,21.3c.01,2.4-.09,3.61-.37,6.19l.05.02ZM593.2,192.03v9.34c1.57-6.66,6.85-10.1,12.3-10.1,1.66,0,2.59.09,3.7.37v13.1c-1.67-.18-2.5-.27-4.25-.27-6.93,0-11.7,4.16-11.7,14.9v17.2h-14.1v-44.6h14.1l-.05.06ZM648.8,214.03c0-6.47-3.98-11.6-10.7-11.6-6.37,0-10.5,4.9-10.5,11.6s4.17,11.6,10.5,11.6c6.74,0,10.7-5.17,10.7-11.6ZM621.7,252.83c-4.51-2.77-7.75-7.57-7.95-12.4h14.4c.64,3.51,3.69,5.63,9.43,5.63,6.56,0,10.5-2.86,10.5-10.8v-5.92c-2.22,4.44-8.13,7.21-14,7.21-13.2,0-21.2-9.6-21.2-22.7s8.5-23,21.4-23c6.1,0,11.6,2.96,13.8,7.58v-6.38h14.1v41.7c-.09,8.6-3.14,15-8.59,18.8-4.07,2.87-9.52,3.98-15.9,3.98-6.37-.01-11.7-1.02-16.1-3.61l.11-.09ZM693.8,200.13c-6.1,0-9.8,3.79-9.89,9.25h19.3c-.1-5.92-3.43-9.25-9.43-9.25h.02ZM716.8,218.13h-32.9c.28,5.83,4.15,9.15,10.4,9.15,4.35,0,7.12-1.39,8.32-4.16h13.9c-1.38,8.78-10.3,14.8-22.2,14.8-15.2,0-24.5-8.78-24.5-23.7s9.52-23.6,24-23.6,23.3,8.69,23.3,21.3c0,2.4-.09,3.61-.37,6.19l.05.02ZM753.1,225.25v11.3c-2.04.37-5.37.74-9.43.74-6.65,0-15.8-1.47-15.8-16.4v-17.8h-7.02v-11.2h7.02v-13.2h14.1v13.2h10.1v11.2h-10.1v14.8c0,6.56,2.67,7.58,6.19,7.58,1.76,0,3.61-.1,4.9-.28l.04.06ZM774.8,236.55h-14.2v-44.5h14.2v44.5ZM759.1,179.45c0-4.79,3.6-8.67,8.68-8.67s8.79,3.88,8.79,8.67-3.7,8.6-8.79,8.6-8.68-3.88-8.68-8.6ZM800.1,217.15v19.4h-14.1v-64.7h14.1v38.7l14.5-18.6h16.6l-17.7,21.1,18,23.5h-17.3l-14.2-19.4h.1ZM882.9,235.15c0,7.21-2.58,12.7-6.37,16.1-3.98,3.42-8.88,5.18-16.4,5.18s-12.8-1.58-16.4-4.63c-3.23-2.77-5.45-6.93-5.55-11.7h14.2c.27,3.78,2.4,6.01,7.76,6.01s8.6-3.05,8.6-9.99v-6.92c-2.5,4.72-7.39,7.39-14.2,7.39-11.4,0-16.4-7.58-16.4-18.7v-25.9h14.1v23.8c0,5.73,1.94,9.61,7.86,9.61s8.59-4.43,8.59-11.3v-22.1h14.1v43.2h.01l.1-.05ZM979.6,88.15l3.89,7.54,16.7-8.89-3.95-7.52-16.6,8.87h-.04Z"/>
  <path class="st0" d="M332,166c0,2.33.36,4.59,1,6.72.47,1.53-1.06,2.89-2.53,2.27l-17.2-7.24c-1.54-.66-1.54-2.84,0-3.49l17.2-7.25c1.47-.62,2.99.74,2.54,2.27-.65,2.12-1,4.38-1,6.72h-.01ZM278.1,166.02c0,2.34.36,4.59,1,6.72.47,1.53-1.06,2.9-2.53,2.27l-17.2-7.23c-1.54-.66-1.54-2.84,0-3.49l17.1-7.26c1.48-.62,3,.74,2.55,2.27-.65,2.12-1,4.38-1,6.72h.08ZM304.3,151.52c.25,2.33.83,4.53,1.69,6.58.63,1.47-.75,2.99-2.28,2.52l-17.8-5.4c-1.59-.49-1.82-2.66-.36-3.47l16.3-9.01c1.4-.78,3.06.42,2.76,1.99-.41,2.18-.52,4.46-.28,6.79h-.03ZM166.3.52c-2.34,0-4.59-.35-6.72-.99-1.53-.46-2.89,1.07-2.27,2.54l7.25,17.2c.66,1.54,2.84,1.53,3.49-.01l7.24-17.2c.62-1.47-.74-3-2.27-2.54-2.13.65-4.38,1-6.72,1ZM329.3,137.52c.41,2.3,1.15,4.46,2.15,6.44.73,1.42-.54,3.03-2.1,2.68l-18.2-4.15c-1.63-.38-2.02-2.52-.61-3.43l15.6-10.1c1.34-.87,3.09.21,2.9,1.8-.27,2.2-.21,4.48.19,6.79l.07-.03ZM321.82,109.62c.8,2.2,1.9,4.2,3.24,5.98.95,1.27-.01,3.08-1.61,2.99l-18.6-.93c-1.68-.08-2.42-2.13-1.2-3.27l13.6-12.7c1.17-1.08,3.08-.32,3.16,1.27.12,2.21.57,4.45,1.37,6.65h.04ZM309.62,83.42c1.17,2.03,2.6,3.81,4.23,5.32,1.16,1.1.52,3.04-1.07,3.24l-18.5,2.31c-1.67.2-2.76-1.68-1.75-3.02l11.2-14.9c.96-1.27,2.97-.86,3.33.69.51,2.17,1.34,4.3,2.51,6.32l.05.04ZM293.02,59.82c1.51,1.8,3.22,3.29,5.09,4.5,1.33.88,1.03,2.9-.49,3.37l-17.8,5.49c-1.6.49-3.01-1.18-2.24-2.67l8.47-16.6c.72-1.42,2.78-1.36,3.4.11.88,2.04,2.06,3.99,3.56,5.78v.02ZM272.62,39.42c1.8,1.51,3.75,2.68,5.79,3.56,1.47.62,1.54,2.67.11,3.39l-16.6,8.5c-1.49.76-3.16-.65-2.67-2.24l5.47-17.8c.46-1.53,2.49-1.82,3.36-.49,1.22,1.87,2.72,3.58,4.51,5.08h.03ZM249.02,22.92c2.02,1.17,4.15,2,6.31,2.5,1.56.36,1.97,2.37.7,3.33l-14.8,11.2c-1.33,1.01-3.23-.07-3.02-1.74l2.28-18.5c.21-1.58,2.15-2.23,3.24-1.07,1.52,1.63,3.3,3.05,5.33,4.22l-.04.06ZM222.82,10.72c2.2.8,4.44,1.24,6.66,1.36,1.59.08,2.35,1.99,1.27,3.16l-12.7,13.6c-1.14,1.22-3.19.47-3.28-1.2l-.96-18.6c-.08-1.6,1.73-2.56,3-1.62,1.78,1.34,3.78,2.44,5.98,3.24l.03.06ZM194.92,3.26c2.31.41,4.59.46,6.79.18,1.59-.19,2.66,1.56,1.8,2.9l-10.1,15.6c-.91,1.4-3.06,1.02-3.44-.61l-4.16-18.2c-.36-1.55,1.25-2.82,2.67-2.1,1.98,1,4.15,1.74,6.45,2.14v.09ZM166.22,27.66c-2.33,0-4.58-.35-6.72-1-1.52-.46-2.89,1.07-2.27,2.54l7.26,17.2c.65,1.54,2.84,1.54,3.49,0l7.23-17.2c.62-1.47-.74-3-2.27-2.53-2.13.64-4.38,1-6.72,1h0ZM298.22,123.36c.72,2.23,1.75,4.26,3.03,6.09.91,1.3-.12,3.07-1.71,2.94l-18.6-1.58c-1.66-.15-2.34-2.22-1.08-3.32l14.1-12.2c1.2-1.05,3.08-.22,3.12,1.37.04,2.22.41,4.48,1.13,6.7h0ZM286.42,96.86c1.17,2.03,2.6,3.81,4.23,5.32,1.16,1.1.52,3.04-1.07,3.24l-18.5,2.31c-1.67.2-2.76-1.68-1.75-3.03l11.2-14.8c.96-1.27,2.97-.86,3.32.69.51,2.17,1.34,4.3,2.51,6.32l.06-.05ZM269.42,73.46c1.57,1.74,3.34,3.18,5.24,4.33,1.37.82,1.15,2.86-.37,3.38l-17.6,6.1c-1.58.55-3.05-1.07-2.34-2.58l7.88-16.9c.68-1.45,2.73-1.46,3.41-.02.95,2.02,2.19,3.92,3.76,5.66l.02.03ZM247.82,54.06c1.89,1.38,3.92,2.42,6.03,3.15,1.5.52,1.71,2.55.34,3.38l-15.9,9.62c-1.43.87-3.2-.42-2.82-2.04l4.21-18.1c.36-1.55,2.36-1.99,3.32-.72,1.35,1.77,2.97,3.38,4.86,4.75l-.04-.04ZM222.72,39.56c2.13.95,4.33,1.55,6.54,1.82,1.59.2,2.21,2.15,1.05,3.24l-13.6,12.7c-1.22,1.14-3.21.25-3.18-1.42l.34-18.6c.03-1.59,1.9-2.43,3.11-1.39,1.68,1.45,3.6,2.69,5.74,3.64h0ZM166.32,54.56c-2.34,0-4.59-.35-6.71-.99-1.53-.46-2.9,1.06-2.27,2.54l7.25,17.1c.65,1.54,2.83,1.54,3.49,0l7.23-17.2c.63-1.47-.74-2.99-2.27-2.53-2.12.64-4.37,1-6.72,1v.08ZM274.32,137.26c.61,2.25,1.53,4.34,2.71,6.23.84,1.36-.29,3.07-1.87,2.85l-18.4-2.55c-1.66-.23-2.23-2.34-.9-3.37l14.7-11.4c1.26-.98,3.09-.06,3.04,1.54-.07,2.22.18,4.49.78,6.75l-.06-.05ZM263.12,110.36c1.17,2.02,2.6,3.8,4.23,5.32,1.16,1.09.52,3.03-1.07,3.23l-18.5,2.31c-1.66.21-2.76-1.68-1.75-3.02l11.2-14.8c.96-1.27,2.97-.86,3.32.7.51,2.16,1.34,4.29,2.51,6.31l.06-.05ZM245.32,87.26c1.65,1.65,3.49,2.99,5.46,4.04,1.41.75,1.29,2.8-.2,3.4l-17.2,7.01c-1.55.63-3.1-.91-2.47-2.46l7-17.3c.6-1.48,2.65-1.6,3.4-.19,1.05,1.96,2.39,3.8,4.05,5.46l-.04.04ZM222.12,69.56c2.03,1.17,4.16,1.99,6.32,2.49,1.55.36,1.97,2.37.7,3.33l-14.8,11.2c-1.34,1.01-3.23-.08-3.03-1.74l2.29-18.5c.2-1.58,2.15-2.23,3.24-1.06,1.52,1.62,3.29,3.05,5.32,4.22l-.04.06ZM195.22,58.36c2.26.61,4.53.85,6.75.78,1.6-.05,2.51,1.78,1.54,3.03l-11.4,14.7c-1.02,1.32-3.13.76-3.37-.9l-2.57-18.4c-.21-1.58,1.5-2.71,2.85-1.87,1.89,1.18,3.98,2.1,6.24,2.7l-.04-.04ZM110.42,69.56c-2.02,1.18-4.15,2-6.31,2.5-1.56.37-1.97,2.38-.7,3.34l14.9,11.2c1.33,1.01,3.22-.08,3.02-1.75l-2.31-18.5c-.2-1.59-2.14-2.23-3.24-1.06-1.52,1.62-3.29,3.05-5.32,4.22l-.04.05ZM222.42,292.56c-2.13.95-4.05,2.19-5.73,3.65-1.21,1.04-3.07.2-3.1-1.4l-.37-18.6c-.03-1.68,1.96-2.57,3.18-1.42l13.6,12.7c1.17,1.09.55,3.04-1.03,3.24-2.21.28-4.41.88-6.55,1.83h0ZM194.92,273.86c-2.26.6-4.35,1.53-6.23,2.7-1.36.84-3.07-.28-2.86-1.87l2.55-18.4c.23-1.66,2.35-2.22,3.37-.9l11.4,14.7c.98,1.26.06,3.1-1.53,3.04-2.22-.06-4.49.18-6.75.79l.05-.06ZM303.92,180.36c-.25,2.33-.14,4.6.28,6.79.31,1.56-1.35,2.77-2.75,1.99l-16.3-8.99c-1.46-.81-1.24-2.98.37-3.46l17.8-5.43c1.54-.46,2.91,1.05,2.29,2.52-.86,2.05-1.44,4.25-1.68,6.58h-.01ZM272.52,292.36c-1.79,1.51-3.29,3.22-4.5,5.09-.88,1.33-2.9,1.04-3.37-.48l-5.49-17.8c-.49-1.59,1.19-3,2.67-2.23l16.6,8.47c1.43.72,1.37,2.77-.1,3.4-2.04.87-3.99,2.06-5.79,3.56h-.02ZM329.12,194.26c-.4,2.3-.45,4.58-.18,6.78.19,1.59-1.56,2.66-2.89,1.8l-15.6-10.1c-1.41-.91-1.03-3.07.6-3.44l18.2-4.16c1.55-.37,2.82,1.24,2.1,2.66-1,1.99-1.73,4.15-2.14,6.46h-.09ZM83.12,22.26c-2.03,1.16-4.16,1.99-6.32,2.49-1.56.37-1.97,2.38-.7,3.34l14.9,11.2c1.34,1.02,3.23-.08,3.02-1.74l-2.31-18.5c-.2-1.58-2.14-2.23-3.24-1.06-1.51,1.62-3.29,3.06-5.31,4.23l-.04.04ZM137.12,30.01c-2.29.49-4.56.61-6.78.43-1.59-.14-2.6,1.64-1.69,2.95l10.7,15.3c.96,1.38,3.1.92,3.41-.72l3.51-18.3c.3-1.57-1.34-2.78-2.74-2.01-1.95,1.08-4.08,1.89-6.37,2.38l-.04-.03ZM245.12,245.01c-1.66,1.66-3,3.5-4.05,5.47-.75,1.4-2.8,1.28-3.39-.2l-7.02-17.2c-.63-1.55.91-3.09,2.46-2.46l17.3,6.99c1.48.6,1.6,2.65.19,3.4-1.96,1.05-3.8,2.4-5.45,4.05l-.04-.05ZM269.12,258.81c-1.56,1.75-2.81,3.65-3.75,5.66-.68,1.45-2.72,1.44-3.41,0l-7.9-16.9c-.71-1.51.75-3.14,2.33-2.6l17.6,6.09c1.51.51,1.73,2.56.37,3.38-1.9,1.15-3.67,2.59-5.24,4.33v.04ZM286.12,235.41c-1.17,2.02-1.99,4.15-2.5,6.31-.36,1.56-2.36,1.97-3.33.7l-11.2-14.8c-1.02-1.34.08-3.23,1.74-3.02l18.5,2.28c1.59.2,2.23,2.14,1.07,3.24-1.62,1.52-3.05,3.3-4.22,5.33l-.06-.04ZM194.82,329.21c-2.31.4-4.47,1.14-6.45,2.15-1.42.72-3.03-.54-2.68-2.1l4.15-18.2c.38-1.64,2.52-2.02,3.44-.61l10.1,15.6c.87,1.34-.21,3.09-1.79,2.9-2.21-.27-4.49-.21-6.79.19l.02.07ZM262.72,222.21c-1.17,2.03-2,4.16-2.5,6.32-.36,1.55-2.37,1.97-3.33.7l-11.2-14.8c-1.01-1.33.08-3.22,1.74-3.02l18.5,2.28c1.58.21,2.23,2.16,1.07,3.25-1.63,1.52-3.05,3.29-4.22,5.32l-.06-.05ZM292.82,272.81c-1.5,1.79-2.68,3.74-3.55,5.79-.63,1.47-2.67,1.53-3.41.11l-8.48-16.6c-.77-1.49.64-3.16,2.24-2.68l17.8,5.47c1.53.47,1.82,2.49.49,3.37-1.86,1.22-3.57,2.72-5.08,4.51v.03ZM59.82,39.81c-1.79,1.51-3.74,2.69-5.79,3.57-1.46.62-1.52,2.67-.1,3.39l16.6,8.47c1.49.77,3.16-.63,2.67-2.23l-5.49-17.8c-.47-1.52-2.49-1.82-3.36-.48-1.22,1.86-2.72,3.57-4.51,5.08h-.02ZM273.82,195.81c-.6,2.25-.85,4.52-.78,6.74.06,1.6-1.77,2.52-3.03,1.54l-14.7-11.4c-1.32-1.04-.76-3.14.9-3.37l18.4-2.58c1.58-.22,2.7,1.5,1.86,2.85-1.18,1.88-2.09,3.98-2.7,6.24l.05-.02ZM248.82,309.81c-2.02,1.18-3.8,2.61-5.32,4.24-1.09,1.15-3.04.52-3.23-1.07l-2.32-18.5c-.2-1.67,1.69-2.76,3.02-1.75l14.9,11.2c1.27.96.86,2.97-.69,3.33-2.17.51-4.3,1.34-6.32,2.5l-.04.05ZM321.62,223.01c-.79,2.2-1.24,4.44-1.35,6.65-.09,1.6-1.99,2.36-3.16,1.27l-13.6-12.7c-1.22-1.14-.48-3.19,1.19-3.27l18.6-.96c1.59-.07,2.56,1.73,1.61,3-1.33,1.78-2.43,3.78-3.24,5.98l-.05.03ZM45.62,97.01c-1.17,2.03-2.6,3.81-4.22,5.33-1.17,1.09-.52,3.04,1.06,3.24l18.5,2.28c1.66.21,2.75-1.68,1.74-3.02l-11.2-14.8c-.96-1.27-2.97-.86-3.32.7-.51,2.16-1.34,4.29-2.5,6.31l-.06-.04Z"/>
  <path class="st0" d="M299,209c-.72,2.22-1.08,4.48-1.12,6.71-.03,1.59-1.91,2.41-3.12,1.37l-14.1-12.2c-1.27-1.1-.6-3.18,1.07-3.32l18.6-1.6c1.59-.14,2.63,1.63,1.72,2.93-1.27,1.83-2.3,3.87-3.03,6.09l-.02.02ZM310.6,248.9c-1.17,2.04-1.99,4.17-2.49,6.32-.37,1.55-2.37,1.97-3.34.7l-11.2-14.8c-1.01-1.34.08-3.23,1.74-3.03l18.5,2.29c1.59.2,2.23,2.15,1.07,3.24-1.62,1.52-3.05,3.29-4.22,5.32l-.06-.04ZM248.7,278.3c-1.9,1.38-3.51,2.99-4.85,4.77-.97,1.27-2.97.83-3.33-.72l-4.23-18.1c-.38-1.63,1.39-2.92,2.82-2.05l16,9.61c1.37.83,1.16,2.86-.34,3.39-2.1.72-4.13,1.77-6.02,3.14l-.05-.04ZM223.1,262.9c-2.02,1.16-3.8,2.6-5.32,4.23-1.08,1.16-3.03.52-3.23-1.07l-2.31-18.5c-.21-1.66,1.69-2.76,3.02-1.75l14.9,11.2c1.27.96.86,2.96-.71,3.33-2.16.5-4.29,1.33-6.31,2.5l-.04.06ZM223.91,321.7c-2.2.79-4.2,1.9-5.97,3.24-1.28.95-3.08-.02-3-1.62l.93-18.6c.09-1.68,2.14-2.42,3.27-1.2l12.7,13.6c1.09,1.17.33,3.07-1.26,3.16-2.22.12-4.46.57-6.66,1.37v.05ZM196.11,301.7c-2.28.49-4.42,1.3-6.37,2.37-1.39.77-3.04-.44-2.74-2.01l3.51-18.3c.32-1.64,2.45-2.1,3.41-.72l10.7,15.3c.91,1.31-.09,3.08-1.68,2.95-2.22-.19-4.5-.06-6.79.43l-.04-.02ZM195.98,30.7c2.28.49,4.56.61,6.77.42,1.6-.14,2.62,1.64,1.7,2.95l-10.6,15.3c-.96,1.36-3.1.91-3.41-.73l-3.54-18.3c-.3-1.56,1.35-2.78,2.75-2.01,1.94,1.08,4.08,1.88,6.37,2.37h-.04ZM138.38,3.3c-2.31.4-4.59.46-6.79.19-1.59-.19-2.67,1.56-1.79,2.89l10.1,15.6c.91,1.42,3.06,1.04,3.43-.6l4.15-18.2c.36-1.56-1.26-2.82-2.68-2.1-1.98,1-4.14,1.74-6.44,2.15l.02.07ZM110.48,10.78c-2.2.8-4.43,1.25-6.66,1.37-1.59.09-2.35,1.99-1.26,3.16l12.7,13.6c1.14,1.22,3.19.47,3.28-1.2l.93-18.6c.08-1.6-1.73-2.57-3-1.61-1.78,1.33-3.77,2.43-5.97,3.23l-.02.05ZM110.73,39.68c-2.14.95-4.34,1.55-6.54,1.83-1.59.2-2.21,2.15-1.05,3.24l13.6,12.7c1.22,1.14,3.21.25,3.18-1.43l-.37-18.6c-.02-1.6-1.9-2.44-3.1-1.4-1.68,1.46-3.6,2.7-5.73,3.65h.01ZM138.23,58.38c-2.26.61-4.53.85-6.75.78-1.59-.05-2.52,1.79-1.54,3.04l11.4,14.7c1.03,1.31,3.14.75,3.37-.91l2.55-18.4c.22-1.58-1.49-2.7-2.85-1.87-1.89,1.18-3.97,2.11-6.23,2.71l.05-.05ZM85.63,54.14c-1.9,1.38-3.92,2.42-6.02,3.15-1.51.52-1.72,2.56-.34,3.39l15.9,9.61c1.43.86,3.2-.42,2.82-2.06l-4.22-18.1c-.37-1.55-2.37-1.99-3.33-.71-1.34,1.77-2.96,3.38-4.85,4.75l.04-.03ZM40.23,59.9c-1.49,1.79-3.21,3.29-5.08,4.51-1.33.88-1.04,2.9.49,3.37l17.8,5.47c1.6.48,3-1.19,2.24-2.68l-8.49-16.6c-.73-1.42-2.77-1.36-3.4.11-.87,2.05-2.05,3.99-3.56,5.79v.03ZM64.03,73.5c-1.56,1.74-3.33,3.18-5.23,4.33-1.37.83-1.14,2.87.37,3.38l17.6,6.09c1.58.55,3.03-1.08,2.32-2.59l-7.9-16.9c-.68-1.44-2.73-1.45-3.4,0-.95,2.01-2.19,3.91-3.76,5.66v.03ZM23.63,83.5c-1.17,2.03-2.59,3.8-4.22,5.32-1.17,1.09-.52,3.04,1.06,3.24l18.5,2.28c1.67.21,2.75-1.68,1.74-3.02l-11.2-14.8c-.96-1.27-2.97-.85-3.33.7-.51,2.16-1.33,4.29-2.5,6.32l-.05-.04ZM88.03,87.27c-1.66,1.65-3.5,3-5.46,4.05-1.4.75-1.29,2.8.2,3.4l17.2,6.99c1.55.63,3.1-.92,2.47-2.47l-7.01-17.2c-.61-1.48-2.65-1.6-3.41-.19-1.04,1.96-2.39,3.8-4.04,5.46l.05-.04ZM70.33,110.37c-1.17,2.03-2.6,3.8-4.22,5.32-1.16,1.09-.52,3.04,1.06,3.24l18.5,2.29c1.67.2,2.75-1.69,1.74-3.03l-11.2-14.8c-.97-1.27-2.97-.85-3.34.7-.5,2.16-1.32,4.29-2.49,6.32l-.05-.04ZM11.53,109.62c-.8,2.2-1.9,4.2-3.23,5.98-.96,1.28.01,3.08,1.61,3l18.6-.95c1.67-.09,2.42-2.15,1.19-3.28l-13.6-12.7c-1.17-1.09-3.07-.33-3.16,1.27-.12,2.21-.56,4.45-1.36,6.65l-.05.03ZM35.23,123.42c-.72,2.22-1.75,4.26-3.02,6.08-.91,1.31.13,3.08,1.72,2.94l18.5-1.6c1.68-.14,2.35-2.22,1.08-3.32l-14.1-12.2c-1.2-1.05-3.08-.22-3.11,1.37-.04,2.23-.41,4.49-1.13,6.71l.06.02ZM59.23,137.32c-.61,2.26-1.53,4.35-2.7,6.24-.84,1.36.28,3.07,1.86,2.85l18.4-2.57c1.66-.23,2.22-2.34.9-3.37l-14.7-11.4c-1.26-.98-3.08-.06-3.03,1.54.07,2.22-.17,4.49-.77,6.74l.04-.03ZM4.03,137.51c-.4,2.31-1.14,4.46-2.14,6.45-.72,1.42.55,3.03,2.1,2.67l18.2-4.17c1.63-.37,2.01-2.52.6-3.43l-15.6-10.1c-1.34-.86-3.08.21-2.9,1.8.27,2.21.23,4.49-.18,6.79h-.08ZM167.03,331.51c-2.35,0-4.6.35-6.72,1-1.53.46-2.9-1.07-2.27-2.53l7.23-17.2c.66-1.54,2.83-1.54,3.49,0l7.25,17.1c.63,1.47-.74,3-2.26,2.54-2.13-.65-4.38-.99-6.72-.99v.08ZM1.03,166.51c0,2.35-.34,4.6-.99,6.72-.46,1.53,1.07,2.9,2.54,2.27l17.2-7.25c1.54-.66,1.53-2.83-.01-3.49l-17.2-7.23c-1.46-.63-2.99.74-2.53,2.27.65,2.12,1,4.37,1,6.71h0ZM3.56,195.31c.41,2.31.46,4.59.19,6.79-.19,1.59,1.56,2.66,2.9,1.8l15.6-10.1c1.4-.91,1.02-3.05-.62-3.43l-18.2-4.15c-1.55-.35-2.82,1.26-2.1,2.68,1.01,1.98,1.75,4.14,2.15,6.44l.08-.03ZM11.05,223.21c.79,2.2,1.24,4.43,1.36,6.65.09,1.6,1.99,2.36,3.16,1.27l13.6-12.7c1.22-1.14.47-3.19-1.2-3.28l-18.6-.92c-1.6-.08-2.56,1.72-1.61,2.99,1.33,1.78,2.44,3.78,3.24,5.98h.05ZM23.25,249.41c1.17,2.03,1.99,4.15,2.5,6.31.36,1.56,2.37,1.97,3.33.7l11.2-14.9c1.02-1.34-.08-3.23-1.74-3.02l-18.5,2.31c-1.58.2-2.23,2.14-1.06,3.24,1.62,1.52,3.06,3.3,4.23,5.32l.04.04ZM39.85,273.01c1.51,1.79,2.69,3.74,3.57,5.78.62,1.48,2.67,1.53,3.39.11l8.47-16.6c.77-1.48-.64-3.16-2.24-2.67l-17.8,5.48c-1.52.48-1.82,2.5-.49,3.37,1.87,1.22,3.58,2.72,5.09,4.51v.02ZM60.25,293.41c1.79,1.51,3.3,3.22,4.51,5.08.88,1.34,2.9,1.04,3.37-.49l5.47-17.8c.48-1.59-1.19-3-2.68-2.23l-16.6,8.49c-1.42.72-1.35,2.77.11,3.39,2.05.88,4,2.06,5.79,3.56h.03ZM83.85,309.91c2.03,1.17,3.81,2.6,5.33,4.22,1.09,1.16,3.03.52,3.23-1.06l2.29-18.5c.2-1.66-1.69-2.75-3.02-1.74l-14.8,11.2c-1.27.96-.85,2.96.7,3.32,2.17.51,4.29,1.33,6.32,2.5l-.05.06ZM110.05,322.11c2.2.8,4.2,1.9,5.98,3.23,1.28.95,3.08-.02,3-1.61l-.95-18.6c-.09-1.66-2.14-2.41-3.28-1.19l-12.7,13.6c-1.08,1.16-.32,3.07,1.27,3.15,2.21.13,4.45.57,6.65,1.37l.03.05ZM137.95,329.56c2.31.4,4.47,1.14,6.45,2.15,1.43.72,3.03-.55,2.68-2.11l-4.17-18.2c-.38-1.63-2.53-2.01-3.44-.6l-10.1,15.6c-.86,1.34.21,3.08,1.8,2.9,2.21-.27,4.49-.22,6.79.18v.08ZM166.65,305.16c-2.34,0-4.59.36-6.72,1-1.53.46-2.89-1.06-2.27-2.53l7.24-17.2c.65-1.53,2.83-1.54,3.49,0l7.25,17.2c.62,1.46-.74,3-2.26,2.53-2.13-.64-4.39-.99-6.73-.99h0ZM28.65,152.16c-.24,2.33-.82,4.53-1.69,6.58-.62,1.47.76,2.98,2.29,2.52l17.8-5.43c1.6-.48,1.83-2.65.36-3.46l-16.3-9c-1.4-.77-3.06.43-2.76,2,.42,2.19.53,4.46.29,6.79h.01ZM28.66,181.16c.25,2.33.14,4.61-.28,6.79-.3,1.56,1.37,2.77,2.76,1.99l16.3-9.01c1.46-.82,1.23-2.98-.37-3.47l-17.8-5.4c-1.53-.46-2.9,1.05-2.28,2.52.86,2.05,1.45,4.26,1.69,6.58h-.02ZM34.71,209.56c.72,2.22,1.08,4.48,1.13,6.69.04,1.6,1.9,2.43,3.12,1.38l14.1-12.2c1.26-1.1.59-3.18-1.08-3.32l-18.6-1.58c-1.59-.13-2.62,1.63-1.71,2.94,1.28,1.83,2.3,3.86,3.03,6.09h0ZM46.51,236.06c1.16,2.03,1.99,4.15,2.5,6.31.36,1.56,2.37,1.97,3.33.7l11.2-14.8c1.01-1.34-.08-3.23-1.75-3.03l-18.5,2.31c-1.58.21-2.22,2.15-1.06,3.24,1.62,1.52,3.06,3.3,4.23,5.32l.05-.05ZM63.51,259.46c1.56,1.75,2.81,3.65,3.76,5.66.68,1.45,2.72,1.44,3.4-.01l7.89-16.9c.71-1.51-.76-3.13-2.34-2.58l-17.6,6.1c-1.5.52-1.73,2.55-.36,3.38,1.9,1.15,3.67,2.59,5.24,4.32v.03ZM85.01,278.86c1.89,1.38,3.51,2.98,4.86,4.75.96,1.28,2.96.84,3.32-.72l4.21-18.1c.38-1.63-1.39-2.91-2.82-2.05l-15.9,9.63c-1.37.82-1.16,2.86.34,3.38,2.11.73,4.14,1.77,6.03,3.14l-.04-.03ZM110.11,293.36c2.14.96,4.06,2.19,5.74,3.64,1.2,1.04,3.07.2,3.1-1.39l.35-18.6c.03-1.67-1.97-2.56-3.19-1.42l-13.6,12.7c-1.17,1.09-.54,3.04,1.04,3.24,2.21.27,4.41.87,6.55,1.82h.01ZM137.71,302.3c2.28.49,4.42,1.29,6.37,2.37,1.39.77,3.05-.45,2.74-2.01l-3.53-18.3c-.31-1.64-2.46-2.09-3.41-.72l-10.6,15.3c-.91,1.32.11,3.1,1.69,2.96,2.22-.19,4.5-.06,6.79.42l-.05-.02ZM166.51,278.4c-2.34,0-4.59.35-6.72,1-1.53.46-2.89-1.07-2.27-2.53l7.24-17.2c.65-1.54,2.83-1.55,3.48-.01l7.26,17.2c.62,1.47-.74,3-2.27,2.54-2.12-.64-4.38-.99-6.72-.99h0ZM54.51,166.4c0,2.34-.35,4.59-1,6.72-.46,1.53,1.07,2.89,2.54,2.27l17.2-7.26c1.54-.65,1.53-2.83-.01-3.48l-17.2-7.24c-1.47-.62-3,.74-2.53,2.27.64,2.13,1,4.38,1,6.72h0ZM58.32,195.3c.61,2.26.85,4.53.78,6.76-.05,1.59,1.79,2.51,3.04,1.53l14.7-11.4c1.32-1.03.75-3.14-.91-3.37l-18.4-2.55c-1.58-.22-2.71,1.49-1.86,2.85,1.18,1.89,2.1,3.98,2.7,6.23l-.05-.05ZM69.52,222.2c1.17,2.02,1.99,4.15,2.5,6.31.36,1.56,2.37,1.97,3.33.7l11.2-14.9c1.02-1.34-.08-3.22-1.74-3.02l-18.5,2.31c-1.59.19-2.23,2.15-1.07,3.24,1.62,1.52,3.06,3.3,4.23,5.32l.05.04ZM87.32,245.3c1.65,1.65,3.01,3.5,4.05,5.46.75,1.4,2.8,1.29,3.4-.2l7-17.2c.62-1.55-.92-3.09-2.47-2.47l-17.2,7.02c-1.48.6-1.59,2.65-.19,3.4,1.96,1.05,3.81,2.39,5.46,4.04l-.05-.05ZM110.42,263c2.03,1.17,3.81,2.6,5.33,4.22,1.08,1.16,3.03.52,3.23-1.06l2.29-18.5c.21-1.66-1.69-2.75-3.02-1.74l-14.8,11.2c-1.27.97-.85,2.97.7,3.34,2.16.5,4.29,1.32,6.32,2.49l-.05.05ZM137.42,274.2c2.26.6,4.34,1.52,6.24,2.7,1.35.83,3.06-.29,2.84-1.87l-2.57-18.4c-.23-1.66-2.33-2.22-3.37-.9l-11.4,14.7c-.98,1.25-.06,3.08,1.54,3.03,2.22-.07,4.49.17,6.75.78l-.03-.04Z"/>
</svg>