<?xml version="1.0" encoding="UTF-8"?>
<svg id="Vrstva_1" xmlns="http://www.w3.org/2000/svg" version="1.1" viewBox="0 0 260.62 148.03">
  <!-- Generator: Adobe Illustrator 29.0.0, SVG Export Plug-In . SVG Version: 2.1.0 Build 186)  -->
  <defs>
    <style>
      .st0 {
        fill: #fff;
      }
    </style>
  </defs>
  <path class="st0" d="M169,106.12l5.02-30.95,8.29.21,7.39,16.56,7.19-16.56,8.57-.18,4.54,30.93h-8.38l-2.47-17.54-8.1,17.22c-.49.62-2.15.22-2.91.29l-8.1-17.32-2.37,17.34h-8.67Z"/>
  <path class="st0" d="M46.81,71.44l4.62-30.75,8.3-.2,7.48,16.57,7.42-16.52,8.46.05,4.72,30.86h-8.67l-2.46-17.54-8.27,17.56-2.44-.05c-2.46-5-4.52-10.21-6.96-15.21-.27-.55-.6-1.36-.91-1.84-.12-.19.02-.35-.44-.25l-2.17,17.34h-8.67Z"/>
  <path class="st0" d="M136.48,56.46v-15.96h8.28v30.94h-7l-12.32-16.55v16.55h-8.28v-30.94h7.39c4.02,5.28,7.72,10.82,11.92,15.96Z"/>
  <path class="st0" d="M222.4,75.18v19.81c0,.12.45,1.4.56,1.61,1.71,3.54,7.64,3.09,8.77-.76.07-.24.33-1.49.33-1.64v-19.02h8.67v20.59c0,.4-.49,2.2-.65,2.7-3.55,11.21-21.93,11.33-25.71.21-.14-.42-.64-2.02-.64-2.32v-21.19h8.67Z"/>
  <path class="st0" d="M37.16,88.38v-12.51s.27-.3.3-.3h8.18v30.94h-8.47v-13.4l-.48.41-8.49,12.99h-9.95l10.63-15.86-9.65-15.08h9.56c2.78,3.8,4.92,8.06,7.58,11.93.22.31.41.74.79.88Z"/>
  <path class="st0" d="M147.91,71.44l12.31-30.95,8.16.04,12.25,30.91h-9.16c-.58-.64-1.5-4.73-2-4.9h-10.89s-1.6,4.9-1.6,4.9h-9.07ZM167.42,59.81l-3.25-9.46-3.36,9.06c-.17.12.19.4.21.4h6.4Z"/>
  <path class="st0" d="M108.3,97.65v8.47h-8.67v-30.64s.27-.3.3-.3h14.19c6.12,0,10.81,6.45,10.32,12.29-.4,4.79-4.9,10.17-9.93,10.17h-6.21ZM108.3,90.16h4.43c.09,0,1.18-.51,1.35-.62,2.04-1.33,2.04-4.91,0-6.24-.17-.11-1.26-.62-1.35-.62h-4.43v7.49Z"/>
  <path class="st0" d="M138.45,74.59v3.75s10.05,0,10.05,0c.19.23.5.32.76.72,1.01,1.57,1.46,3.73,1.41,5.58h-8.38c-.27,0-.34-1.11-.52-1.45-1.39-2.74-7.8-1.04-5.41,1.86,1.05,1.27,7.1,2.34,9.08,3.14,4.53,1.83,6.64,4.73,6.21,9.77-1.09,12.76-25.66,11.88-24.84-1.68h8.87c.07,0,.01.96.24,1.43,2.15,4.46,10.64-.35,5.02-3.05-4.75-2.28-12.84-1.46-13.71-8.95-.87-7.45,4.37-11.03,11.21-11.11Z"/>
  <path class="st0" d="M94.5,75.18v7.19s-.27.3-.3.3h-11.13v4.24s.27.3.3.3h9.95v6.9h-9.95s-.3.27-.3.3v4.14s.27.3.3.3h11.53v7.29h-20.3v-30.94h19.9Z"/>
  <path class="st0" d="M43.86,40.5l-.15,2.31c-3.12,5.9-6.47,11.7-9.61,17.59-.53.99-1.15,2.12-1.47,3.16h11.82v7.88h-24.63l.11-1.96c3.78-7.02,7.74-13.97,11.32-21.1h-10.64v-7.88h23.25Z"/>
  <path class="st0" d="M100.02,40.5v3.15s11.82,0,11.82,0c.01,1.44,0,2.89,0,4.34h-11.23v4.53h10.05v6.9h-10.05v4.53h11.33s.3.27.3.3v7.19h-20.1l-.2-.2v-30.55l.2-.2c2.62,0,5.26,0,7.88,0Z"/>
  <path class="st0" d="M70.86,98.44v7.69h-19.71v-30.94h8.38s.3.27.3.3v22.66s.27.3.3.3h10.74Z"/>
  <path class="st0" d="M159.54,75.18v3.15s5.32,0,5.32,0c.1,9.19-.07,18.4,0,27.59l-.2.2h-8.48s0-30.74,0-30.74l.2-.2c1.05,0,2.1,0,3.15,0Z"/>
  <path class="st0" d="M100.02,40.5c3.94-.01,7.89.01,11.83,0,0,1.05,0,2.11,0,3.15h-11.83s0-3.15,0-3.15Z"/>
  <path class="st0" d="M148.5,78.33h-10.05s0-3.74,0-3.74c4.13-.05,7.34.55,10.05,3.74Z"/>
  <path class="st0" d="M164.86,78.33h-5.32s0-3.15,0-3.15c.75,0,4.86-.11,5.14.09.33.23.18,2.5.18,3.07Z"/>
  <path class="st0" d="M91.94,40.69l.2-.2-.2.2Z"/>
  <path class="st0" d="M92.14,71.44l-.2-.2.2.2Z"/>
  <path class="st0" d="M156.19,75.38l.2-.2-.2.2Z"/>
  <path class="st0" d="M164.66,106.12l.2-.2-.2.2Z"/>
</svg>