<?xml version="1.0" encoding="UTF-8"?>
<svg width="83px" height="15px" viewBox="0 0 83 15" version="1.1" xmlns="http://www.w3.org/2000/svg" xmlns:xlink="http://www.w3.org/1999/xlink">
    <title>Datlab logo</title>
    <g id="Datlab-logo" stroke="#fff" stroke-width="1" fill="#fff" fill-rule="evenodd">
        <path d="M12.1187408,10.1482753 C11.1778352,12.941446 8.77089861,14.5454407 5.37656796,14.5454407 L5.37656796,14.5454407 L0.000152636157,14.5454407 L-1.20792265e-13,10.147 L3.515,10.147 L3.51577428,11.5482844 L5.24162491,11.5482844 C6.7042931,11.5482844 7.77215768,11.1433577 8.39536464,10.1476846 Z M26.74,10.147 L28.2245712,14.5454407 L24.4461657,14.5454407 L23.4873598,11.4914663 L18.4660578,11.4914663 L17.5072519,14.5454407 L13.7288464,14.5454407 L15.212,10.147 L26.74,10.147 Z M36.008,10.147 L36.0086683,14.5454407 L32.5427625,14.5454407 L32.542,10.147 L36.008,10.147 Z M46.285,10.147 L46.2856606,11.6903298 L52.3367912,11.6903298 L52.3367912,14.5454407 L42.770039,14.5454407 L42.77,10.147 L46.285,10.147 Z M67.344,10.147 L68.8282644,14.5454407 L65.0498589,14.5454407 L64.091053,11.4914663 L59.069751,11.4914663 L58.1109451,14.5454407 L54.3325396,14.5454407 L55.816,10.147 L67.344,10.147 Z M82.6009637,10.1464687 C82.6094413,10.2539945 82.6137779,10.363809 82.6137779,10.4758423 C82.6137779,12.8266923 80.7671888,14.5454407 77.5498623,14.5454407 L77.5498623,14.5454407 L71.0228799,14.5454407 L71.022,10.147 L74.538,10.147 L74.5385016,11.7116366 L76.7117949,11.7116366 C78.2316799,11.7116366 78.9419064,11.1008417 78.9419064,10.0710131 L78.939,10.147 Z M3.515,7.063 L3.515,8.147 L-1.20792265e-13,8.147 L-1.20792265e-13,7.063 L3.515,7.063 Z M12.554,7.063 L12.5569588,7.26561807 C12.5569588,7.56789562 12.5448035,7.86216387 12.5208062,8.14815127 L8.99429605,8.14908457 C9.02084413,7.87406624 9.03423493,7.57986754 9.03423493,7.26561807 C9.03423493,7.19688542 9.03358851,7.12911385 9.03229763,7.06229427 L12.554,7.063 Z M19.854,7.063 L19.515,8.147 L15.887,8.147 L16.253,7.063 L19.854,7.063 Z M25.699,7.063 L26.065,8.147 L22.437,8.147 L22.097,7.063 L25.699,7.063 Z M36.008,7.063 L36.008,8.147 L32.542,8.147 L32.542,7.063 L36.008,7.063 Z M46.285,7.063 L46.285,8.147 L42.77,8.147 L42.77,7.063 L46.285,7.063 Z M60.457,7.063 L60.118,8.147 L56.491,8.147 L56.857,7.063 L60.457,7.063 Z M66.303,7.063 L66.669,8.147 L63.04,8.147 L62.7,7.063 L66.303,7.063 Z M79.9776791,7.06227618 C80.6874203,7.22437718 81.3264006,7.59748259 81.7974599,8.1468924 L71.022,8.147 L71.022,7.063 Z M5.3694657,2.66453526e-15 C9.03494016,2.66453526e-15 11.5478099,1.85966473 12.3122167,5.06311694 L8.71477493,5.06336493 C8.18007581,3.58052616 6.98314649,2.99715623 5.19190905,2.99715623 L5.19190905,2.99715623 L3.51577428,2.99715623 L3.515,5.063 L-1.20792265e-13,5.063 L0.000152636157,2.66453526e-15 Z M23.3169055,2.66453526e-15 L25.024,5.063 L21.468,5.063 L21.0299758,3.66476923 L20.9163396,3.66476923 L20.479,5.063 L16.928,5.063 L18.6365122,2.66453526e-15 L23.3169055,2.66453526e-15 Z M40.4191755,2.66453526e-15 L40.4191755,2.85511091 L36.0086683,2.85511091 L36.008,5.063 L32.542,5.063 L32.5427625,2.85511091 L28.1251531,2.85511091 L28.1251531,2.66453526e-15 L40.4191755,2.66453526e-15 Z M46.2856606,2.66453526e-15 L46.285,5.063 L42.77,5.063 L42.770039,2.66453526e-15 L46.2856606,2.66453526e-15 Z M63.9205986,2.66453526e-15 L65.628,5.063 L62.072,5.063 L61.633669,3.66476923 L61.5200327,3.66476923 L61.082,5.063 L57.532,5.063 L59.2402054,2.66453526e-15 L63.9205986,2.66453526e-15 Z M77.088215,2.66453526e-15 C80.3552574,2.66453526e-15 82.0455967,1.48437358 82.0455967,3.67897376 C82.0455967,4.19167924 81.9387984,4.65639308 81.7441777,5.06373155 L78.3032553,5.06378497 C78.4042153,4.85971207 78.4589524,4.62440782 78.4589524,4.3607913 C78.4589524,3.39488313 77.7132144,2.79119052 76.5413406,2.79119052 L76.5413406,2.79119052 L74.5385016,2.79119052 L74.538,5.063 L71.022,5.063 L71.0228799,2.66453526e-15 Z" fill="#fff"></path>
    </g>
</svg>